<mxfile host="app.diagrams.net" modified="2022-08-09T02:10:45.437Z" agent="5.0 (Windows NT 10.0; Win64; x64) AppleWebKit/537.36 (KHTML, like Gecko) Chrome/103.0.5060.134 Safari/537.36 Edg/103.0.1264.77" etag="Zvf1hCxiBiYfqr91_K7Z" version="20.2.2" type="github">
  <diagram id="zyDrhKFoaydJQp832Jw_" name="Page-1">
    <mxGraphModel dx="958" dy="567" grid="1" gridSize="10" guides="1" tooltips="1" connect="1" arrows="1" fold="1" page="1" pageScale="1" pageWidth="850" pageHeight="1100" math="0" shadow="0">
      <root>
        <mxCell id="0" />
        <mxCell id="1" parent="0" />
        <mxCell id="mFYZ2eShWCgf1i-h24rl-11" style="rounded=0;orthogonalLoop=1;jettySize=auto;html=1;entryX=0;entryY=0;entryDx=0;entryDy=0;exitX=1;exitY=0.5;exitDx=0;exitDy=0;strokeWidth=4;fillColor=#d5e8d4;strokeColor=#82b366;" edge="1" parent="1" source="mFYZ2eShWCgf1i-h24rl-1" target="mFYZ2eShWCgf1i-h24rl-3">
          <mxGeometry relative="1" as="geometry" />
        </mxCell>
        <mxCell id="mFYZ2eShWCgf1i-h24rl-14" style="edgeStyle=orthogonalEdgeStyle;curved=1;rounded=0;orthogonalLoop=1;jettySize=auto;html=1;strokeWidth=5;exitX=0.5;exitY=0;exitDx=0;exitDy=0;fillColor=#f8cecc;strokeColor=#b85450;" edge="1" parent="1" source="mFYZ2eShWCgf1i-h24rl-1" target="mFYZ2eShWCgf1i-h24rl-2">
          <mxGeometry relative="1" as="geometry" />
        </mxCell>
        <mxCell id="mFYZ2eShWCgf1i-h24rl-15" style="rounded=0;orthogonalLoop=1;jettySize=auto;html=1;entryX=0;entryY=0.5;entryDx=0;entryDy=0;strokeWidth=4;fillColor=#ffe6cc;strokeColor=#d79b00;dashed=1;" edge="1" parent="1" target="mFYZ2eShWCgf1i-h24rl-3">
          <mxGeometry relative="1" as="geometry">
            <mxPoint x="450" y="220" as="sourcePoint" />
          </mxGeometry>
        </mxCell>
        <mxCell id="mFYZ2eShWCgf1i-h24rl-17" style="edgeStyle=orthogonalEdgeStyle;curved=1;rounded=0;orthogonalLoop=1;jettySize=auto;html=1;exitX=0.5;exitY=1;exitDx=0;exitDy=0;entryX=0;entryY=0.5;entryDx=0;entryDy=0;strokeWidth=3;fillColor=#e1d5e7;strokeColor=#9673a6;endArrow=classic;endFill=1;endSize=12;" edge="1" parent="1" source="mFYZ2eShWCgf1i-h24rl-1" target="mFYZ2eShWCgf1i-h24rl-2">
          <mxGeometry relative="1" as="geometry">
            <Array as="points">
              <mxPoint x="470" y="233" />
              <mxPoint x="470" y="400" />
            </Array>
          </mxGeometry>
        </mxCell>
        <mxCell id="mFYZ2eShWCgf1i-h24rl-1" value="Adventure&amp;nbsp;&amp;nbsp;" style="triangle;whiteSpace=wrap;html=1;" vertex="1" parent="1">
          <mxGeometry x="410" y="150" width="70" height="110" as="geometry" />
        </mxCell>
        <mxCell id="mFYZ2eShWCgf1i-h24rl-18" style="edgeStyle=orthogonalEdgeStyle;curved=1;rounded=0;orthogonalLoop=1;jettySize=auto;html=1;strokeWidth=3;fillColor=#e1d5e7;strokeColor=#9673a6;endArrow=classic;endFill=1;endSize=12;" edge="1" parent="1" source="mFYZ2eShWCgf1i-h24rl-2" target="mFYZ2eShWCgf1i-h24rl-8">
          <mxGeometry relative="1" as="geometry">
            <Array as="points">
              <mxPoint x="450" y="410" />
            </Array>
          </mxGeometry>
        </mxCell>
        <mxCell id="mFYZ2eShWCgf1i-h24rl-41" style="orthogonalLoop=1;jettySize=auto;html=1;exitX=0;exitY=1;exitDx=0;exitDy=0;entryX=1;entryY=0;entryDx=0;entryDy=0;endArrow=classic;endFill=1;strokeColor=#82b366;strokeWidth=4;fillColor=#d5e8d4;" edge="1" parent="1" source="mFYZ2eShWCgf1i-h24rl-2" target="mFYZ2eShWCgf1i-h24rl-10">
          <mxGeometry relative="1" as="geometry" />
        </mxCell>
        <mxCell id="mFYZ2eShWCgf1i-h24rl-2" value="Meet Characters/&lt;br&gt;PokÃ©mon" style="ellipse;whiteSpace=wrap;html=1;aspect=fixed;" vertex="1" parent="1">
          <mxGeometry x="640" y="360" width="80" height="80" as="geometry" />
        </mxCell>
        <mxCell id="mFYZ2eShWCgf1i-h24rl-26" style="orthogonalLoop=1;jettySize=auto;html=1;exitX=1;exitY=1;exitDx=0;exitDy=0;entryX=0;entryY=0;entryDx=0;entryDy=0;endArrow=classic;endFill=1;strokeWidth=4;strokeColor=#82b366;fillColor=#d5e8d4;" edge="1" parent="1" source="mFYZ2eShWCgf1i-h24rl-3" target="mFYZ2eShWCgf1i-h24rl-2">
          <mxGeometry relative="1" as="geometry" />
        </mxCell>
        <mxCell id="mFYZ2eShWCgf1i-h24rl-27" style="edgeStyle=orthogonalEdgeStyle;curved=1;rounded=0;orthogonalLoop=1;jettySize=auto;html=1;endArrow=classic;endFill=1;strokeWidth=4;fillColor=#ffe6cc;strokeColor=#d79b00;dashed=1;" edge="1" parent="1" source="mFYZ2eShWCgf1i-h24rl-3" target="mFYZ2eShWCgf1i-h24rl-10">
          <mxGeometry relative="1" as="geometry">
            <Array as="points">
              <mxPoint x="580" y="410" />
              <mxPoint x="580" y="410" />
            </Array>
          </mxGeometry>
        </mxCell>
        <mxCell id="mFYZ2eShWCgf1i-h24rl-29" style="edgeStyle=orthogonalEdgeStyle;curved=1;orthogonalLoop=1;jettySize=auto;html=1;exitX=0;exitY=1;exitDx=0;exitDy=0;endArrow=classic;endFill=1;strokeColor=#9673a6;strokeWidth=3;fillColor=#e1d5e7;endSize=12;" edge="1" parent="1" source="mFYZ2eShWCgf1i-h24rl-3">
          <mxGeometry relative="1" as="geometry">
            <mxPoint x="440" y="250" as="targetPoint" />
            <Array as="points">
              <mxPoint x="440" y="300" />
            </Array>
          </mxGeometry>
        </mxCell>
        <mxCell id="mFYZ2eShWCgf1i-h24rl-3" value="Find Item" style="rhombus;whiteSpace=wrap;html=1;" vertex="1" parent="1">
          <mxGeometry x="540" y="240" width="80" height="80" as="geometry" />
        </mxCell>
        <mxCell id="mFYZ2eShWCgf1i-h24rl-37" style="orthogonalLoop=1;jettySize=auto;html=1;exitX=0.5;exitY=0;exitDx=0;exitDy=0;endArrow=classic;endFill=1;strokeColor=#d79b00;strokeWidth=4;entryX=0.5;entryY=1;entryDx=0;entryDy=0;dashed=1;fillColor=#ffe6cc;" edge="1" parent="1" source="mFYZ2eShWCgf1i-h24rl-5" target="mFYZ2eShWCgf1i-h24rl-7">
          <mxGeometry relative="1" as="geometry">
            <mxPoint x="220" y="450" as="targetPoint" />
          </mxGeometry>
        </mxCell>
        <mxCell id="mFYZ2eShWCgf1i-h24rl-38" style="orthogonalLoop=1;jettySize=auto;html=1;entryX=0.5;entryY=1;entryDx=0;entryDy=0;endArrow=classic;endFill=1;strokeColor=#82b366;strokeWidth=4;exitX=0;exitY=0.5;exitDx=0;exitDy=0;fillColor=#d5e8d4;" edge="1" parent="1" source="mFYZ2eShWCgf1i-h24rl-5" target="mFYZ2eShWCgf1i-h24rl-9">
          <mxGeometry relative="1" as="geometry" />
        </mxCell>
        <mxCell id="mFYZ2eShWCgf1i-h24rl-46" style="edgeStyle=orthogonalEdgeStyle;orthogonalLoop=1;jettySize=auto;html=1;endArrow=classic;endFill=1;strokeColor=#9673a6;strokeWidth=3;exitX=1;exitY=0;exitDx=0;exitDy=0;curved=1;fillColor=#e1d5e7;endSize=12;" edge="1" parent="1" source="mFYZ2eShWCgf1i-h24rl-5">
          <mxGeometry relative="1" as="geometry">
            <mxPoint x="440" y="239.9999999999999" as="targetPoint" />
          </mxGeometry>
        </mxCell>
        <mxCell id="mFYZ2eShWCgf1i-h24rl-5" value="Gift Item" style="rhombus;whiteSpace=wrap;html=1;" vertex="1" parent="1">
          <mxGeometry x="240" y="510" width="80" height="80" as="geometry" />
        </mxCell>
        <mxCell id="mFYZ2eShWCgf1i-h24rl-30" style="edgeStyle=orthogonalEdgeStyle;curved=1;orthogonalLoop=1;jettySize=auto;html=1;exitX=1;exitY=0.75;exitDx=0;exitDy=0;endArrow=classic;endFill=1;strokeColor=#9673a6;strokeWidth=3;fillColor=#e1d5e7;endSize=12;" edge="1" parent="1" source="mFYZ2eShWCgf1i-h24rl-7">
          <mxGeometry relative="1" as="geometry">
            <mxPoint x="440" y="229.9999999999999" as="targetPoint" />
          </mxGeometry>
        </mxCell>
        <mxCell id="mFYZ2eShWCgf1i-h24rl-45" style="orthogonalLoop=1;jettySize=auto;html=1;exitX=1;exitY=0;exitDx=0;exitDy=0;endArrow=classic;endFill=1;strokeColor=#82b366;strokeWidth=4;fillColor=#d5e8d4;entryX=0;entryY=0.5;entryDx=0;entryDy=0;" edge="1" parent="1" source="mFYZ2eShWCgf1i-h24rl-7" target="mFYZ2eShWCgf1i-h24rl-1">
          <mxGeometry relative="1" as="geometry" />
        </mxCell>
        <mxCell id="mFYZ2eShWCgf1i-h24rl-7" value="Party&lt;br&gt;evolves" style="rounded=0;whiteSpace=wrap;html=1;" vertex="1" parent="1">
          <mxGeometry x="250" y="250" width="60" height="60" as="geometry" />
        </mxCell>
        <mxCell id="mFYZ2eShWCgf1i-h24rl-19" style="edgeStyle=orthogonalEdgeStyle;curved=1;rounded=0;orthogonalLoop=1;jettySize=auto;html=1;strokeWidth=3;fillColor=#e1d5e7;strokeColor=#9673a6;endArrow=classic;endFill=1;endSize=12;" edge="1" parent="1" source="mFYZ2eShWCgf1i-h24rl-8">
          <mxGeometry relative="1" as="geometry">
            <mxPoint x="440" y="230" as="targetPoint" />
            <Array as="points">
              <mxPoint x="440" y="310" />
              <mxPoint x="440" y="310" />
            </Array>
          </mxGeometry>
        </mxCell>
        <mxCell id="mFYZ2eShWCgf1i-h24rl-34" style="edgeStyle=orthogonalEdgeStyle;curved=1;orthogonalLoop=1;jettySize=auto;html=1;entryX=0;entryY=0.25;entryDx=0;entryDy=0;endArrow=classic;endFill=1;strokeColor=#b85450;strokeWidth=4;exitX=0;exitY=0.5;exitDx=0;exitDy=0;fillColor=#f8cecc;" edge="1" parent="1" source="mFYZ2eShWCgf1i-h24rl-8" target="mFYZ2eShWCgf1i-h24rl-7">
          <mxGeometry relative="1" as="geometry">
            <Array as="points">
              <mxPoint x="130" y="630" />
              <mxPoint x="130" y="265" />
            </Array>
          </mxGeometry>
        </mxCell>
        <mxCell id="mFYZ2eShWCgf1i-h24rl-44" style="orthogonalLoop=1;jettySize=auto;html=1;exitX=0;exitY=0.25;exitDx=0;exitDy=0;entryX=1;entryY=1;entryDx=0;entryDy=0;endArrow=classic;endFill=1;strokeColor=#82b366;strokeWidth=4;fillColor=#d5e8d4;" edge="1" parent="1" source="mFYZ2eShWCgf1i-h24rl-8" target="mFYZ2eShWCgf1i-h24rl-5">
          <mxGeometry relative="1" as="geometry" />
        </mxCell>
        <mxCell id="mFYZ2eShWCgf1i-h24rl-8" value="Battle" style="shape=hexagon;perimeter=hexagonPerimeter2;whiteSpace=wrap;html=1;fixedSize=1;" vertex="1" parent="1">
          <mxGeometry x="405" y="600" width="80" height="60" as="geometry" />
        </mxCell>
        <mxCell id="mFYZ2eShWCgf1i-h24rl-35" style="edgeStyle=orthogonalEdgeStyle;curved=1;orthogonalLoop=1;jettySize=auto;html=1;endArrow=classic;endFill=1;strokeColor=#b85450;strokeWidth=4;entryX=0;entryY=0.25;entryDx=0;entryDy=0;exitX=0.5;exitY=0;exitDx=0;exitDy=0;fillColor=#f8cecc;" edge="1" parent="1" source="mFYZ2eShWCgf1i-h24rl-7" target="mFYZ2eShWCgf1i-h24rl-1">
          <mxGeometry relative="1" as="geometry">
            <mxPoint x="400" y="179.9999999999999" as="targetPoint" />
            <Array as="points">
              <mxPoint x="280" y="177" />
            </Array>
          </mxGeometry>
        </mxCell>
        <mxCell id="mFYZ2eShWCgf1i-h24rl-39" style="orthogonalLoop=1;jettySize=auto;html=1;entryX=0;entryY=0.75;entryDx=0;entryDy=0;endArrow=classic;endFill=1;strokeColor=#82b366;strokeWidth=4;fillColor=#d5e8d4;" edge="1" parent="1" source="mFYZ2eShWCgf1i-h24rl-9" target="mFYZ2eShWCgf1i-h24rl-7">
          <mxGeometry relative="1" as="geometry" />
        </mxCell>
        <mxCell id="mFYZ2eShWCgf1i-h24rl-40" style="edgeStyle=orthogonalEdgeStyle;curved=1;orthogonalLoop=1;jettySize=auto;html=1;endArrow=classic;endFill=1;strokeColor=#9673a6;strokeWidth=3;fillColor=#e1d5e7;endSize=12;" edge="1" parent="1" source="mFYZ2eShWCgf1i-h24rl-9">
          <mxGeometry relative="1" as="geometry">
            <mxPoint x="440" y="240" as="targetPoint" />
          </mxGeometry>
        </mxCell>
        <mxCell id="mFYZ2eShWCgf1i-h24rl-9" value="Character joins story" style="ellipse;whiteSpace=wrap;html=1;aspect=fixed;" vertex="1" parent="1">
          <mxGeometry x="160" y="360" width="80" height="80" as="geometry" />
        </mxCell>
        <mxCell id="mFYZ2eShWCgf1i-h24rl-31" style="edgeStyle=orthogonalEdgeStyle;curved=1;orthogonalLoop=1;jettySize=auto;html=1;endArrow=classic;endFill=1;strokeColor=#9673a6;strokeWidth=3;exitX=0;exitY=0;exitDx=0;exitDy=0;fillColor=#e1d5e7;endSize=22;" edge="1" parent="1" source="mFYZ2eShWCgf1i-h24rl-10">
          <mxGeometry relative="1" as="geometry">
            <mxPoint x="440" y="230" as="targetPoint" />
            <Array as="points">
              <mxPoint x="440" y="520" />
            </Array>
          </mxGeometry>
        </mxCell>
        <mxCell id="mFYZ2eShWCgf1i-h24rl-32" style="edgeStyle=orthogonalEdgeStyle;curved=1;orthogonalLoop=1;jettySize=auto;html=1;endArrow=classic;endFill=1;strokeColor=#d79b00;strokeWidth=4;fillColor=#ffe6cc;dashed=1;" edge="1" parent="1" source="mFYZ2eShWCgf1i-h24rl-10">
          <mxGeometry relative="1" as="geometry">
            <mxPoint x="320" y="550" as="targetPoint" />
            <Array as="points">
              <mxPoint x="460" y="550" />
              <mxPoint x="460" y="550" />
            </Array>
          </mxGeometry>
        </mxCell>
        <mxCell id="mFYZ2eShWCgf1i-h24rl-42" style="edgeStyle=orthogonalEdgeStyle;curved=1;orthogonalLoop=1;jettySize=auto;html=1;exitX=0.5;exitY=1;exitDx=0;exitDy=0;entryX=1;entryY=0.75;entryDx=0;entryDy=0;endArrow=classic;endFill=1;strokeColor=#b85450;strokeWidth=4;fillColor=#f8cecc;" edge="1" parent="1" source="mFYZ2eShWCgf1i-h24rl-2" target="mFYZ2eShWCgf1i-h24rl-8">
          <mxGeometry relative="1" as="geometry">
            <Array as="points">
              <mxPoint x="680" y="642" />
            </Array>
          </mxGeometry>
        </mxCell>
        <mxCell id="mFYZ2eShWCgf1i-h24rl-43" style="orthogonalLoop=1;jettySize=auto;html=1;exitX=0.25;exitY=1;exitDx=0;exitDy=0;entryX=1;entryY=0.25;entryDx=0;entryDy=0;endArrow=classic;endFill=1;strokeColor=#82b366;strokeWidth=4;fillColor=#d5e8d4;" edge="1" parent="1" source="mFYZ2eShWCgf1i-h24rl-10" target="mFYZ2eShWCgf1i-h24rl-8">
          <mxGeometry relative="1" as="geometry" />
        </mxCell>
        <mxCell id="mFYZ2eShWCgf1i-h24rl-10" value="Learn about&lt;br&gt;Subject" style="rounded=0;whiteSpace=wrap;html=1;" vertex="1" parent="1">
          <mxGeometry x="550" y="520" width="60" height="60" as="geometry" />
        </mxCell>
      </root>
    </mxGraphModel>
  </diagram>
</mxfile>
